<?xml version="1.0" encoding="UTF-8"?>
<svg id="Layer_34" data-name="Layer 34" xmlns="http://www.w3.org/2000/svg" viewBox="0 0 94.64 119.49">
  <defs>
    <style>
      .cls-1 {
        fill: #ffd2d2;
        stroke: #ffd2d2;
      }

      .cls-1, .cls-2 {
        stroke-miterlimit: 10;
      }

      .cls-3 {
        fill: none;
        stroke: #000;
        stroke-linecap: round;
        stroke-linejoin: round;
        stroke-width: 3.5px;
      }

      .cls-4 {
        fill: #fff3e1;
        stroke-width: 0px;
      }

      .cls-2 {
        fill: #ffdede;
        stroke: #ffdede;
      }
    </style>
  </defs>
  <path class="cls-4" d="M11.21,51.44S57.86-9.74,91.93,3.79c0,0,6.3,52.69-17.02,81.55,0,0,2.81,5.65,10.01,0,0,0-5.71,12.54-19.52,13.26,0,0,4.37,5.16,16.02-1.97,0,0-7.51,12.25-24.53,10.32,0,0-2.86,7.71-11.13,6.53l-10.55,6L0,62.86l11.21-11.41Z"/>
  <path class="cls-3" d="M12.34,51.44S56.39-8.98,91.93,3.79c0,0,6.01,52.08-17.02,81.55,0,0,5.01,5.4,10.01,0,0,0-7.01,14.74-19.52,13.26,0,0,8.01,4.42,16.02-1.97,0,0-8.51,12.77-24.53,10.32,0,0-2,6.39-10.01,5.9"/>
  <path class="cls-2" d="M28.86,64.46S44.98,29.2,84.59,13.83c0,0,9.21,64.19-41.91,82.27,0,0-.18-14.9-13.82-31.64Z"/>
  <path class="cls-1" d="M62.77,25.53c-5.65,7.47-10.59,15.75-14.38,24.31-1.83,4.13-3.41,8.44-4.23,12.89-.49,2.67-.84,4.9-.17,7.59.59,2.36,2.46,5.57,4.17,7.18,4.03,3.79,10.03,7.99,15.81,5.76,0,0-6.71,7.42-21.36,12.85,0,0-.5-15.27-13.82-31.64,0,0,10.86-22.5,33.97-38.94Z"/>
</svg>