<?xml version="1.0" encoding="UTF-8"?>
<svg xmlns="http://www.w3.org/2000/svg" viewBox="0 0 143.27 148.87">
  <defs>
    <style>
      .cls-1 {
        stroke: #231f20;
      }

      .cls-1, .cls-2 {
        stroke-miterlimit: 10;
        stroke-width: 3px;
      }

      .cls-1, .cls-3 {
        fill: #fff;
      }

      .cls-2 {
        fill: none;
        stroke: #000;
      }

      .cls-3, .cls-4 {
        stroke-width: 0px;
      }

      .cls-4 {
        fill: #fff3e1;
      }
    </style>
  </defs>
  <g id="Layer_1" data-name="Layer 1">
    <ellipse class="cls-1" cx="71.64" cy="74.44" rx="70.14" ry="72.94"/>
  </g>
  <g id="Layer_2" data-name="Layer 2">
    <path class="cls-4" d="M41.93,8.35S54.55,1.63,72.07.81c68.3,3.43,69.7,75.2,69.7,75.2-2.33,3.17-.49,7.05-.49,7.05-4.33-1.21-9.51.47-10.57,4.69-1.14,4.53-.82,8.51-2.58,12.93-1.97,4.94-6.23,12.61-12.59,12.65-5.65.96-11.31-4.51-14.75-8.3-3.65-4.02-5.63-9.4-9.72-13.13-2.4-2.19-5.34-3.66-8.46-4.5-6.23-1.67-14.55-1.66-20.81-.07-8.18,2.08-10.83,8.41-15.56,14.41-3.78,4.79-10.76,12.76-17.65,11.59-6.03-.04-10.36-7.18-12.3-11.92s-1.83-8.77-2.93-13.58c-.98-4.31-3.7-6.22-8.12-4.98,0,0-2.41.31-3.75.72,0,0-7-50.87,40.43-75.21Z"/>
    <path class="cls-3" d="M111.08,39.2c-3,.26-6.04,1.75-8.51,3.3-4.2,2.64-7.66,6.55-8.38,11.53,0,0-1.23,11.33,11.04,4.08,3.32-2.21,6.97-2.94,10.46-4.7,2.75-1.39,3.78-5.08,3.72-7.95-.05-2.35-1.34-4.23-3.42-5.35-1.56-.83-3.23-1.07-4.91-.92Z"/>
    <path class="cls-3" d="M31.83,39.2c3,.26,6.04,1.75,8.51,3.3,4.2,2.64,7.66,6.55,8.38,11.53,0,0,1.23,11.33-11.04,4.08-3.32-2.21-6.97-2.94-10.46-4.7-2.75-1.39-3.78-5.08-3.72-7.95.05-2.35,1.34-4.23,3.42-5.35,1.56-.83,3.23-1.07,4.91-.92Z"/>
  </g>
  <g id="Layer_3" data-name="Layer 3">
    <ellipse class="cls-2" cx="71.64" cy="74.44" rx="70.14" ry="72.94"/>
  </g>
</svg>